# Blender v3.1.2 OBJ File: 'untitled.blend'
# www.blender.org
mtllib sheriff.mtl
o Cube_Cube.001
v -0.500000 0.404449 3.498613
v -0.500000 1.898194 3.661921
v -0.500000 -0.614982 -1.790799
v -0.500000 1.881863 -2.110495
v 0.500000 0.404449 3.498613
v 0.500000 1.898194 3.661921
v 0.500000 -0.614982 -1.790799
v 0.500000 1.881863 -2.110495
v -1.000000 1.257472 3.841560
v -1.000000 0.669563 -3.792567
v 1.000000 0.669563 -3.792567
v 1.000000 1.257472 3.841560
v -0.500000 0.404449 1.869581
v -0.500000 1.898194 2.032888
v 0.500000 0.404449 1.869581
v 0.500000 1.898194 2.032888
v 1.000000 1.257472 2.212527
v -1.000000 1.257472 2.212527
v -0.500000 1.817721 1.166070
v 0.500000 0.323976 1.002762
v -1.000000 1.176999 1.345709
v -0.500000 0.323976 1.002762
v 0.500000 1.817721 1.166070
v 1.000000 1.176999 1.345709
v -0.500000 1.735477 0.319832
v 0.500000 0.233566 0.230012
v -1.000000 1.094754 0.499470
v -0.500000 0.233566 0.230012
v 0.500000 1.735477 0.319832
v 1.000000 1.094754 0.499470
v -0.500000 1.680621 -0.337764
v 0.500000 -0.073113 -0.192771
v -1.000000 1.105222 -0.272440
v -0.500000 -0.073113 -0.192771
v 0.500000 1.680621 -0.337764
v 1.000000 1.105222 -0.272440
v -0.500000 1.639730 -1.033158
v -0.500000 1.614269 -1.694835
v 0.500000 -0.310462 -0.519978
v 0.500000 -0.113170 -0.778167
v -1.000000 1.113323 -0.869850
v -1.000000 0.940885 -1.939797
v -0.500000 -0.113170 -0.778167
v -0.500000 -0.310462 -0.519978
v 0.500000 1.614269 -1.694835
v 0.500000 1.639730 -1.033158
v 1.000000 0.940885 -1.939797
v 1.000000 1.113323 -0.869850
v -0.500000 1.750300 -1.906134
v 0.500000 -0.011044 -1.691417
v -1.000000 0.885977 -2.782026
v -0.500000 -0.011044 -1.691417
v 0.500000 1.750300 -1.906134
v 1.000000 0.885977 -2.782026
v -1.000000 0.071136 -2.147694
v 1.000000 0.071136 -2.147694
v 1.000000 0.835241 3.671807
v -1.000000 0.835241 3.671807
v -1.000000 0.835241 2.042775
v 1.000000 0.835241 2.042775
v 1.000000 0.754769 1.175957
v -1.000000 0.754769 1.175957
v 1.000000 0.668482 0.366094
v -1.000000 0.668482 0.366094
v 1.000000 0.521968 -0.233006
v -1.000000 0.521968 -0.233006
v 1.000000 0.315047 -1.250333
v 1.000000 0.277930 -0.468039
v -1.000000 0.277930 -0.468039
v -1.000000 0.315047 -1.250333
v 1.000000 0.322520 -1.756042
v -1.000000 0.322520 -1.756042
v -1.000000 -1.679978 -4.356410
v 1.000000 -1.679978 -4.356410
v -1.000000 -2.131427 -2.809521
v 1.000000 -2.131427 -2.809521
v -1.000000 0.313356 -3.404783
v -1.000000 -0.059181 -3.490591
v -1.000000 -0.448050 -3.788700
v -1.000000 -0.885911 -4.086808
v -1.000000 -1.372764 -4.466572
v -1.000000 -1.791551 -2.821698
v -1.000000 -1.402683 -2.817544
v -1.000000 -1.030145 -2.731735
v -1.000000 -0.592285 -2.531611
v -1.000000 -0.301401 -2.298826
v 1.000000 -1.791551 -2.821698
v 1.000000 -1.402683 -2.817544
v 1.000000 -1.030145 -2.731735
v 1.000000 -0.592285 -2.531611
v 1.000000 -0.301401 -2.298826
v 1.000000 -1.372764 -4.466571
v 1.000000 -0.885911 -4.086808
v 1.000000 -0.448050 -3.788699
v 1.000000 -0.059181 -3.490590
v 1.000000 0.313356 -3.404783
v 0.500000 -0.577444 -0.938137
v 0.500000 -0.510798 -1.065680
v -0.500000 -0.510798 -1.065680
v -0.500000 -0.577444 -0.938137
v 0.500000 -0.626454 -1.501490
v 0.500000 -0.516462 -1.491770
v -0.500000 -0.516462 -1.491770
v -0.500000 -0.626454 -1.501490
v -0.500000 1.836913 -2.040672
v 0.500000 -0.408636 -1.756843
v -1.000000 0.743504 -3.447299
v -0.500000 -0.408636 -1.756843
v 0.500000 1.836913 -2.040672
v 1.000000 0.743504 -3.447299
v 1.000000 0.157026 -2.013880
v -1.000000 0.157026 -2.013880
vt 0.500000 0.249612
vt 0.625000 0.249612
vt 0.625000 0.250000
vt 0.500000 0.250000
vt 0.625000 0.500000
vt 0.500000 0.500000
vt 0.500000 0.546371
vt 0.625000 0.546371
vt 0.625000 0.750000
vt 0.500000 0.750000
vt 0.625000 1.000000
vt 0.500000 1.000000
vt 0.125000 0.546371
vt 0.375000 0.546371
vt 0.375000 0.750000
vt 0.125000 0.750000
vt 0.875000 0.546371
vt 0.875000 0.750000
vt 0.438127 0.750000
vt 0.438127 1.000000
vt 0.438127 0.546371
vt 0.438127 0.250000
vt 0.500000 0.250000
vt 0.500000 0.250000
vt 0.438127 0.250000
vt 0.438127 0.249612
vt 0.438127 0.250000
vt 0.438127 0.000000
vt 0.500000 0.000000
vt 0.500000 0.203629
vt 0.438127 0.203629
vt 0.438127 0.523521
vt 0.500000 0.523521
vt 0.625000 0.523521
vt 0.875000 0.523521
vt 0.125000 0.523521
vt 0.375000 0.523521
vt 0.625000 0.000000
vt 0.625000 0.203629
vt 0.500000 0.511760
vt 0.625000 0.511760
vt 0.125000 0.511760
vt 0.375000 0.511760
vt 0.875000 0.511760
vt 0.438127 0.511760
vt 0.500000 0.226479
vt 0.438127 0.226479
vt 0.625000 0.226479
vt 0.438127 0.507922
vt 0.500000 0.507922
vt 0.625000 0.507922
vt 0.875000 0.507922
vt 0.125000 0.507922
vt 0.375000 0.507922
vt 0.500000 0.238240
vt 0.438127 0.238240
vt 0.625000 0.238240
vt 0.500000 0.504951
vt 0.625000 0.504951
vt 0.125000 0.504951
vt 0.375000 0.504951
vt 0.875000 0.504951
vt 0.438127 0.504951
vt 0.500000 0.242078
vt 0.438127 0.242078
vt 0.625000 0.242078
vt 0.438127 0.501136
vt 0.500000 0.501136
vt 0.500000 0.502311
vt 0.438127 0.502311
vt 0.625000 0.501136
vt 0.875000 0.501136
vt 0.875000 0.502311
vt 0.625000 0.502311
vt 0.125000 0.501136
vt 0.375000 0.501136
vt 0.375000 0.502311
vt 0.125000 0.502311
vt 0.125000 0.504951
vt 0.375000 0.504951
vt 0.500000 0.245049
vt 0.438127 0.245049
vt 0.500000 0.247689
vt 0.438127 0.247689
vt 0.625000 0.245049
vt 0.625000 0.247689
vt 0.500000 0.500388
vt 0.625000 0.500388
vt 0.125000 0.500388
vt 0.375000 0.500388
vt 0.875000 0.500388
vt 0.438127 0.500388
vt 0.500000 0.248864
vt 0.438127 0.248864
vt 0.625000 0.248864
vt 0.375000 0.247689
vt 0.375000 0.248864
vt 0.375000 0.245049
vt 0.375000 0.242078
vt 0.375000 0.238240
vt 0.375000 0.226479
vt 0.375000 0.203629
vt 0.375000 0.000000
vt 0.375000 0.249612
vt 0.375000 0.250000
vt 0.438127 0.500000
vt 0.375000 0.500000
vt 0.375000 1.000000
vt 0.500000 0.500000
vt 0.438127 0.500000
vt 0.438127 0.500000
vt 0.500000 0.500000
vt 0.500000 0.500000
vt 0.500000 0.250000
vt 0.500000 0.500000
vt 0.500000 0.250000
vt 0.500000 0.500000
vt 0.500000 0.250000
vt 0.500000 0.500000
vt 0.500000 0.250000
vt 0.438127 0.500000
vt 0.438127 0.500000
vt 0.438127 0.500000
vt 0.438127 0.500000
vt 0.438127 0.250000
vt 0.438127 0.250000
vt 0.438127 0.250000
vt 0.438127 0.250000
vt 0.125000 0.504951
vt 0.375000 0.504951
vt 0.375000 0.247689
vt 0.375000 0.245049
vt 0.375000 0.502311
vt 0.125000 0.502311
vt 0.125000 0.502311
vt 0.375000 0.502311
vt 0.375000 0.247689
vt 0.375000 0.245049
vt 0.875000 0.500000
vn -0.9017 0.4314 -0.0301
vn 0.0000 0.8113 -0.5847
vn 0.7884 0.6152 0.0000
vn 0.0000 0.2700 0.9629
vn 0.0000 -1.0000 0.0000
vn 0.0000 1.0000 0.0000
vn 0.0000 -0.3730 0.9278
vn 1.0000 0.0000 0.0000
vn -1.0000 0.0000 0.0000
vn 0.0000 0.9957 -0.0924
vn 0.0000 -0.9957 0.0924
vn 0.7947 0.6044 -0.0561
vn -0.7884 0.6152 0.0000
vn 0.7949 0.6039 -0.0587
vn 0.0000 -0.9932 0.1162
vn 0.0000 0.9953 -0.0967
vn -0.7947 0.6044 -0.0561
vn 0.0000 0.9965 -0.0831
vn 0.0000 -0.8095 0.5872
vn 0.7742 0.6326 -0.0196
vn -0.7949 0.6039 -0.0587
vn 0.7421 0.6700 -0.0170
vn 0.0000 0.9983 -0.0587
vn -0.7742 0.6326 -0.0196
vn 0.0000 0.8408 0.5413
vn 0.0000 0.9993 -0.0385
vn 0.0000 -0.9938 -0.1111
vn -0.0000 -0.8429 0.5381
vn 0.8508 0.5239 0.0403
vn 0.7636 0.6415 -0.0733
vn -0.7421 0.6700 -0.0170
vn -0.7636 0.6415 -0.0733
vn 0.8735 0.4857 -0.0339
vn 0.0000 -0.1624 0.9867
vn -0.8508 0.5239 0.0403
vn -0.5833 -0.8098 -0.0626
vn 0.5879 -0.4028 0.7016
vn -0.6687 -0.7253 -0.1634
vn -0.6654 -0.5670 0.4855
vn 0.6687 -0.7253 -0.1634
vn 0.5833 -0.8098 -0.0626
vn -0.6701 -0.6786 0.3009
vn 0.6654 -0.5670 0.4855
vn -0.6369 -0.7662 0.0855
vn 0.6701 -0.6786 0.3009
vn -0.6368 -0.7677 0.0713
vn 0.6369 -0.7662 0.0855
vn 0.6368 -0.7677 0.0713
vn -0.6527 -0.7576 0.0000
vn -0.7562 -0.3258 0.5675
vn 0.0000 -0.4615 -0.8872
vn 0.6527 -0.7576 0.0000
vn 0.0000 -0.9600 -0.2802
vn 0.0000 0.0358 0.9994
vn 0.0000 -0.3375 -0.9413
vn 0.0000 -0.7365 -0.6765
vn 0.0000 0.2245 -0.9745
vn 0.0000 0.6084 -0.7936
vn 0.0000 0.5628 -0.8266
vn 0.0000 0.6150 -0.7885
vn 0.0000 -0.3759 0.9267
vn 0.0000 -0.6248 0.7808
vn 0.0000 -0.4157 0.9095
vn 0.0000 -0.2245 0.9745
vn 0.0000 -0.0107 0.9999
vn -0.0000 -0.9962 0.0867
vn 0.0000 0.5859 -0.8104
vn 0.0000 0.9263 0.3768
vn 0.0000 0.9999 -0.0133
vn -0.5879 -0.4028 0.7016
vn 0.7562 -0.3258 0.5675
vn 0.9017 0.4314 -0.0301
vn -0.8735 0.4857 -0.0339
vn 0.0000 -0.9992 -0.0396
usemtl None
s off
f 107/1/1 105/2/1 4/3/1 10/4/1
f 10/4/2 4/3/2 8/5/2 11/6/2
f 17/7/3 16/8/3 6/9/3 12/10/3
f 12/10/4 6/9/4 2/11/4 9/12/4
f 13/13/5 15/14/5 5/15/5 1/16/5
f 16/8/6 14/17/6 2/18/6 6/9/6
f 57/19/7 12/10/7 9/12/7 58/20/7
f 60/21/8 17/7/8 12/10/8 57/19/8
f 82/22/9 81/23/9 73/24/9 75/25/9
f 112/26/9 107/1/9 10/4/9 55/27/9
f 58/28/9 9/29/9 18/30/9 59/31/9
f 61/32/8 24/33/8 17/7/8 60/21/8
f 23/34/10 19/35/10 14/17/10 16/8/10
f 22/36/11 20/37/11 15/14/11 13/13/11
f 24/33/12 23/34/12 16/8/12 17/7/12
f 9/29/13 2/38/13 14/39/13 18/30/13
f 30/40/14 29/41/14 23/34/14 24/33/14
f 28/42/15 26/43/15 20/37/15 22/36/15
f 29/41/16 25/44/16 19/35/16 23/34/16
f 63/45/8 30/40/8 24/33/8 61/32/8
f 59/31/9 18/30/9 21/46/9 62/47/9
f 18/30/17 14/39/17 19/48/17 21/46/17
f 65/49/8 36/50/8 30/40/8 63/45/8
f 35/51/18 31/52/18 25/44/18 29/41/18
f 34/53/19 32/54/19 26/43/19 28/42/19
f 36/50/20 35/51/20 29/41/20 30/40/20
f 62/47/9 21/46/9 27/55/9 64/56/9
f 21/46/21 19/48/21 25/57/21 27/55/21
f 48/58/22 46/59/22 35/51/22 36/50/22
f 44/60/19 39/61/19 32/54/19 34/53/19
f 46/59/23 37/62/23 31/52/23 35/51/23
f 68/63/8 48/58/8 36/50/8 65/49/8
f 64/56/9 27/55/9 33/64/9 66/65/9
f 27/55/24 25/57/24 31/66/24 33/64/24
f 71/67/8 54/68/8 47/69/8 67/70/8
f 67/70/8 47/69/8 48/58/8 68/63/8
f 53/71/25 49/72/25 38/73/25 45/74/25
f 45/74/26 38/73/26 37/62/26 46/59/26
f 52/75/27 50/76/27 40/77/27 43/78/27
f 39/61/28 44/60/28 100/79/28 97/80/28
f 54/68/29 53/71/29 45/74/29 47/69/29
f 47/69/30 45/74/30 46/59/30 48/58/30
f 66/65/9 33/64/9 41/81/9 69/82/9
f 69/82/9 41/81/9 42/83/9 70/84/9
f 33/64/31 31/66/31 37/85/31 41/81/31
f 41/81/32 37/85/32 38/86/32 42/83/32
f 110/87/33 109/88/33 53/71/33 54/68/33
f 108/89/34 106/90/34 50/76/34 52/75/34
f 109/88/25 105/91/25 49/72/25 53/71/25
f 111/92/8 110/87/8 54/68/8 71/67/8
f 70/84/9 42/83/9 51/93/9 72/94/9
f 42/83/35 38/86/35 49/95/35 51/93/35
f 43/96/36 70/84/36 72/94/36 52/97/36
f 106/90/37 111/92/37 71/67/37 50/76/37
f 44/98/38 69/82/38 70/84/38 43/96/38
f 34/99/39 66/65/39 69/82/39 44/98/39
f 40/77/40 67/70/40 68/63/40 39/61/40
f 50/76/41 71/67/41 67/70/41 40/77/41
f 28/100/42 64/56/42 66/65/42 34/99/42
f 39/61/43 68/63/43 65/49/43 32/54/43
f 22/101/44 62/47/44 64/56/44 28/100/44
f 32/54/45 65/49/45 63/45/45 26/43/45
f 13/102/46 59/31/46 62/47/46 22/101/46
f 26/43/47 63/45/47 61/32/47 20/37/47
f 20/37/48 61/32/48 60/21/48 15/14/48
f 1/103/49 58/28/49 59/31/49 13/102/49
f 108/104/50 112/26/50 55/27/50 3/105/50
f 3/105/51 55/27/51 56/106/51 7/107/51
f 15/14/52 60/21/52 57/19/52 5/15/52
f 5/15/7 57/19/7 58/20/7 1/108/7
f 75/25/53 73/24/53 74/109/53 76/110/53
f 87/111/54 82/22/54 75/25/54 76/110/54
f 92/112/8 87/111/8 76/110/8 74/109/8
f 81/23/55 92/112/55 74/109/55 73/24/55
f 10/4/56 11/6/56 96/113/56 77/114/56
f 77/114/57 96/113/57 95/115/57 78/116/57
f 78/116/58 95/115/58 94/117/58 79/118/58
f 79/118/59 94/117/59 93/119/59 80/120/59
f 80/120/60 93/119/60 92/112/60 81/23/60
f 11/6/8 56/106/8 91/121/8 96/113/8
f 96/113/8 91/121/8 90/122/8 95/115/8
f 95/115/8 90/122/8 89/123/8 94/117/8
f 94/117/8 89/123/8 88/124/8 93/119/8
f 93/119/8 88/124/8 87/111/8 92/112/8
f 56/106/61 55/27/61 86/125/61 91/121/61
f 91/121/62 86/125/62 85/126/62 90/122/62
f 90/122/63 85/126/63 84/127/63 89/123/63
f 89/123/64 84/127/64 83/128/64 88/124/64
f 88/124/65 83/128/65 82/22/65 87/111/65
f 55/27/9 10/4/9 77/114/9 86/125/9
f 86/125/9 77/114/9 78/116/9 85/126/9
f 85/126/9 78/116/9 79/118/9 84/127/9
f 84/127/9 79/118/9 80/120/9 83/128/9
f 83/128/9 80/120/9 81/23/9 82/22/9
f 97/80/66 100/79/66 104/129/66 101/130/66
f 44/98/9 43/96/9 99/131/9 100/132/9
f 43/78/67 40/77/67 98/133/67 99/134/67
f 40/77/8 39/61/8 97/80/8 98/133/8
f 103/135/68 102/136/68 106/90/68 108/89/68
f 100/132/9 99/131/9 103/137/9 104/138/9
f 99/134/69 98/133/69 102/136/69 103/135/69
f 98/133/8 97/80/8 101/130/8 102/136/8
f 52/97/70 72/94/70 112/26/70 108/104/70
f 7/107/71 56/106/71 111/92/71 106/90/71
f 56/106/8 11/6/8 110/87/8 111/92/8
f 8/5/25 4/139/25 105/91/25 109/88/25
f 104/138/9 103/137/9 108/104/9 3/105/9
f 11/6/72 8/5/72 109/88/72 110/87/72
f 72/94/9 51/93/9 107/1/9 112/26/9
f 51/93/73 49/95/73 105/2/73 107/1/73
f 102/136/8 101/130/8 7/107/8 106/90/8
f 101/130/74 104/129/74 3/105/74 7/107/74
